<svg xmlns="http://www.w3.org/2000/svg" width="591.001" height="682.132" viewBox="0 0 591.001 682.132"><defs><style>.a{fill:rgba(91,31,93,0.85);}</style></defs><path class="a" d="M-973,1301.1s-23.315,45.98-110.022-19.706-85.071-65.686-122.7-96.887c-19.679-16.318-54.4-24.874-83.435-20.411-26.056,4.005-47.444,27.812-47.444,27.812s-99.8,135.466-158.691,148.6S-1564,1353.646-1564,1353.646v456.518s.2,8.081,1.764,10.688c.374.756.432,3.784,2.346,7.04,1.124,1.912,1.086,12.946,22.161,15.123,43.105,4.452,170.49-.038,541.415,1.635a29.552,29.552,0,0,0,8.706-.969,19.011,19.011,0,0,0,6.4-3.011c1.952-1.447,4.751-4.481,5.155-7.446.119-.826,3.056-8.279,3.056-8.279Z" transform="translate(1564.001 -1162.918)"/></svg>