<svg xmlns="http://www.w3.org/2000/svg" width="100.9" height="30.387" viewBox="0 0 100.9 30.387"><defs><style>.a{opacity:0.2;}.b{fill:#bce0fd;}.c{fill:#2699fb;}</style></defs><g class="a"><path class="b" d="M88.443,59.138C82.6,63.458,74.1,65.76,66.769,65.76A39.3,39.3,0,0,1,40.278,55.667c-.531-.5-.071-1.169.6-.779A53.233,53.233,0,0,0,67.371,61.9a52.708,52.708,0,0,0,20.222-4.144C88.585,57.367,89.435,58.429,88.443,59.138Z" transform="translate(-25.864 -35.374)"/><path class="b" d="M170.246,54.527c-.744-.956-4.958-.46-6.835-.212-.567.071-.673-.425-.142-.779,3.365-2.373,8.854-1.665,9.491-.885s-.177,6.3-3.329,8.925c-.5.39-.956.177-.744-.354C169.4,59.414,170.99,55.483,170.246,54.527Z" transform="translate(-105.222 -33.526)"/><path class="c" d="M163.5,4.169v-2.3a.539.539,0,0,1,.567-.567h10.271a.59.59,0,0,1,.6.567V3.815c0,.319-.283.744-.779,1.452l-5.312,7.579a11.538,11.538,0,0,1,5.844,1.24,1.055,1.055,0,0,1,.531.885v2.444c0,.354-.354.744-.744.531a11.716,11.716,0,0,0-10.837.035.556.556,0,0,1-.744-.531V15.112a2.646,2.646,0,0,1,.39-1.558l6.2-8.819H164.14A.623.623,0,0,1,163.5,4.169Z" transform="translate(-105.208 -0.84)"/><path class="c" d="M52.183,17.96H49.067a.64.64,0,0,1-.567-.531V1.421a.59.59,0,0,1,.6-.567h2.9a.577.577,0,0,1,.567.531v2.09h.071A4.127,4.127,0,0,1,56.752.5c1.948,0,3.187.956,4.037,2.975A4.439,4.439,0,0,1,65.11.5a4.39,4.39,0,0,1,3.612,1.771c.992,1.346.779,3.294.779,5.029V17.429a.59.59,0,0,1-.6.567H65.783a.608.608,0,0,1-.567-.567v-8.5a21.243,21.243,0,0,0-.071-3.01A1.643,1.643,0,0,0,63.3,4.537a2.086,2.086,0,0,0-1.877,1.31,9.813,9.813,0,0,0-.283,3.081v8.5a.59.59,0,0,1-.6.567H57.425a.608.608,0,0,1-.567-.567v-8.5c0-1.771.283-4.427-1.912-4.427-2.231,0-2.16,2.55-2.16,4.427v8.5A.587.587,0,0,1,52.183,17.96Z" transform="translate(-31.323 -0.323)"/><path class="c" d="M209.048.4c4.639,0,7.119,4,7.119,9.066,0,4.887-2.762,8.783-7.154,8.783-4.533-.035-7.012-4-7.012-8.96C202,4.3,204.515.4,209.048.4Zm.035,3.294c-2.3,0-2.444,3.152-2.444,5.1s-.035,6.127,2.408,6.127c2.408,0,2.55-3.364,2.55-5.419a15.5,15.5,0,0,0-.46-4.25A1.982,1.982,0,0,0,209.083,3.694Z" transform="translate(-130.46 -0.258)"/><path class="c" d="M252.283,17.96h-3.117a.608.608,0,0,1-.567-.567V1.35a.612.612,0,0,1,.6-.531h2.9a.606.606,0,0,1,.567.46V3.723h.071c.885-2.2,2.09-3.223,4.25-3.223a4.124,4.124,0,0,1,3.648,1.877c.815,1.275.815,3.435.815,4.994V17.464a.583.583,0,0,1-.6.5h-3.117a.644.644,0,0,1-.567-.5V8.752c0-1.771.212-4.321-1.948-4.321a2.05,2.05,0,0,0-1.806,1.275,7.352,7.352,0,0,0-.5,3.046v8.641A.651.651,0,0,1,252.283,17.96Z" transform="translate(-160.556 -0.323)"/><path class="c" d="M124.708,9.952a6.332,6.332,0,0,1-.567,3.329,2.506,2.506,0,0,1-2.16,1.417c-1.2,0-1.912-.921-1.912-2.267,0-2.656,2.373-3.152,4.639-3.152Zm3.152,7.614a.64.64,0,0,1-.744.071,7.821,7.821,0,0,1-1.806-2.09,6.2,6.2,0,0,1-5.135,2.267c-2.621,0-4.675-1.629-4.675-4.852a5.3,5.3,0,0,1,3.329-5.1,22.111,22.111,0,0,1,5.879-1.1v-.39a3.826,3.826,0,0,0-.39-2.267,2.1,2.1,0,0,0-1.735-.815,2.358,2.358,0,0,0-2.515,1.877c-.071.283-.248.567-.531.567l-3.01-.319a.545.545,0,0,1-.46-.637C116.74,1.1,120.069,0,123.044,0a7.009,7.009,0,0,1,4.71,1.558c1.523,1.417,1.381,3.329,1.381,5.383v4.852a4.387,4.387,0,0,0,1.169,2.9c.213.283.248.637,0,.815-.673.531-1.806,1.523-2.444,2.054Z" transform="translate(-74.595)"/><path class="c" d="M9.208,9.952a6.332,6.332,0,0,1-.567,3.329A2.506,2.506,0,0,1,6.481,14.7c-1.2,0-1.912-.921-1.912-2.267,0-2.656,2.373-3.152,4.639-3.152Zm3.152,7.614a.64.64,0,0,1-.744.071,7.82,7.82,0,0,1-1.806-2.09,6.2,6.2,0,0,1-5.135,2.267C2.054,17.85,0,16.22,0,12.962a5.3,5.3,0,0,1,3.329-5.1,22.111,22.111,0,0,1,5.879-1.1v-.39a3.826,3.826,0,0,0-.39-2.267,2.066,2.066,0,0,0-1.735-.779A2.358,2.358,0,0,0,4.569,5.206c-.071.283-.248.567-.531.567l-3.01-.319a.545.545,0,0,1-.46-.637C1.2,1.1,4.533,0,7.508,0a7.009,7.009,0,0,1,4.71,1.558C13.741,2.975,13.6,4.887,13.6,6.941v4.852a4.387,4.387,0,0,0,1.169,2.9c.212.283.248.637,0,.815-.673.531-1.806,1.523-2.408,2.054Z"/></g></svg>