<svg xmlns="http://www.w3.org/2000/svg" width="267" height="342" viewBox="0 0 267 342"><defs><style>.a,.b,.c,.d{fill:#2190a8;}.a{font-size:10px;font-family:Arial-BoldMT, Arial;font-weight:700;}.b{font-size:20px;font-family:ArialMT, Arial;}.d{stroke:#bce0fd;}.e{stroke:none;}.f{fill:none;}</style></defs><g transform="translate(-24 -202)"><text class="a" transform="translate(48 540)"><tspan x="0" y="0">SAVE CARD</tspan></text><text class="a" transform="translate(24 211)"><tspan x="0" y="0">CARD NUMBER</tspan></text><text class="b" transform="translate(24 255)"><tspan x="0" y="0" xml:space="preserve">1234     5678     3456     2456</tspan></text><rect class="c" width="267" height="1" transform="translate(24 267)"/><text class="a" transform="translate(24 317)"><tspan x="0" y="0">EXPIRE DATE</tspan></text><text class="b" transform="translate(24 361)"><tspan x="0" y="0" xml:space="preserve">05   /   21</tspan></text><rect class="c" width="83" height="1" transform="translate(24 373)"/><text class="a" transform="translate(24 423)"><tspan x="0" y="0">CARDHOLDER NAME</tspan></text><text class="b" transform="translate(24 467)"><tspan x="0" y="0">John Doe</tspan></text><rect class="c" width="267" height="1" transform="translate(24 479)"/><text class="a" transform="translate(147 317)"><tspan x="0" y="0">CVV</tspan></text><text class="b" transform="translate(147 361)"><tspan x="0" y="0">123</tspan></text><rect class="c" width="83" height="1" transform="translate(147 373)"/><g class="d" transform="translate(24 528)"><rect class="e" width="16" height="16"/><rect class="f" x="0.5" y="0.5" width="15" height="15"/></g></g></svg>